<?xml version="1.0" encoding="UTF-8"?>
<svg xmlns="http://www.w3.org/2000/svg" width="860" height="420" viewBox="0 0 860 420" role="img" aria-labelledby="title desc">
  <title id="title">SSG worker 并发构建平均耗时曲线</title>
  <desc id="desc">SSG_WORKERS 从 1 到 18，每个配置运行 pnpm build 10 次取平均。</desc>
  <rect width="100%" height="100%" fill="white"/>
  <text x="430" y="22" text-anchor="middle" font-size="16" font-weight="600" fill="#111827">SSG_WORKERS 并发数 vs pnpm build 平均耗时</text>
  <line x1="70" y1="362.0" x2="836" y2="362.0" stroke="#e5e7eb"/>
  <text x="60" y="366.0" text-anchor="end" font-size="12" fill="#4b5563">1.5s</text>
  <line x1="70" y1="296.0" x2="836" y2="296.0" stroke="#e5e7eb"/>
  <text x="60" y="300.0" text-anchor="end" font-size="12" fill="#4b5563">1.6s</text>
  <line x1="70" y1="230.0" x2="836" y2="230.0" stroke="#e5e7eb"/>
  <text x="60" y="234.0" text-anchor="end" font-size="12" fill="#4b5563">1.7s</text>
  <line x1="70" y1="164.0" x2="836" y2="164.0" stroke="#e5e7eb"/>
  <text x="60" y="168.0" text-anchor="end" font-size="12" fill="#4b5563">1.8s</text>
  <line x1="70" y1="98.0" x2="836" y2="98.0" stroke="#e5e7eb"/>
  <text x="60" y="102.0" text-anchor="end" font-size="12" fill="#4b5563">1.9s</text>
  <line x1="70" y1="32.0" x2="836" y2="32.0" stroke="#e5e7eb"/>
  <text x="60" y="36.0" text-anchor="end" font-size="12" fill="#4b5563">2.0s</text>
  <line x1="70.0" y1="362" x2="70.0" y2="367" stroke="#6b7280"/>
  <text x="70.0" y="384" text-anchor="middle" font-size="12" fill="#4b5563">1</text>
  <line x1="115.1" y1="362" x2="115.1" y2="367" stroke="#6b7280"/>
  <text x="115.1" y="384" text-anchor="middle" font-size="12" fill="#4b5563">2</text>
  <line x1="205.2" y1="362" x2="205.2" y2="367" stroke="#6b7280"/>
  <text x="205.2" y="384" text-anchor="middle" font-size="12" fill="#4b5563">4</text>
  <line x1="295.3" y1="362" x2="295.3" y2="367" stroke="#6b7280"/>
  <text x="295.3" y="384" text-anchor="middle" font-size="12" fill="#4b5563">6</text>
  <line x1="385.4" y1="362" x2="385.4" y2="367" stroke="#6b7280"/>
  <text x="385.4" y="384" text-anchor="middle" font-size="12" fill="#4b5563">8</text>
  <line x1="475.5" y1="362" x2="475.5" y2="367" stroke="#6b7280"/>
  <text x="475.5" y="384" text-anchor="middle" font-size="12" fill="#4b5563">10</text>
  <line x1="565.6" y1="362" x2="565.6" y2="367" stroke="#6b7280"/>
  <text x="565.6" y="384" text-anchor="middle" font-size="12" fill="#4b5563">12</text>
  <line x1="655.8" y1="362" x2="655.8" y2="367" stroke="#6b7280"/>
  <text x="655.8" y="384" text-anchor="middle" font-size="12" fill="#4b5563">14</text>
  <line x1="745.9" y1="362" x2="745.9" y2="367" stroke="#6b7280"/>
  <text x="745.9" y="384" text-anchor="middle" font-size="12" fill="#4b5563">16</text>
  <line x1="836.0" y1="362" x2="836.0" y2="367" stroke="#6b7280"/>
  <text x="836.0" y="384" text-anchor="middle" font-size="12" fill="#4b5563">18</text>
  <line x1="70" y1="362" x2="836" y2="362" stroke="#374151"/>
  <line x1="70" y1="32" x2="70" y2="362" stroke="#374151"/>
  <polyline points="70.0,318.0 115.1,179.4 160.1,193.8 205.2,188.0 250.2,208.2 295.3,238.8 340.4,230.7 385.4,221.6 430.5,228.2 475.5,221.2 520.6,51.0 565.6,208.4 610.7,186.2 655.8,180.2 700.8,166.1 745.9,163.0 790.9,102.1 836.0,146.0" fill="none" stroke="#2563eb" stroke-width="2.5"/>
  <g><title>1 workers: 1.567s</title><circle cx="70.0" cy="318.0" r="4" fill="#2563eb"/></g>
<g><title>2 workers: 1.777s</title><circle cx="115.1" cy="179.4" r="4" fill="#2563eb"/></g>
<g><title>3 workers: 1.755s</title><circle cx="160.1" cy="193.8" r="4" fill="#2563eb"/></g>
<g><title>4 workers: 1.764s</title><circle cx="205.2" cy="188.0" r="4" fill="#2563eb"/></g>
<g><title>5 workers: 1.733s</title><circle cx="250.2" cy="208.2" r="4" fill="#2563eb"/></g>
<g><title>6 workers: 1.687s</title><circle cx="295.3" cy="238.8" r="4" fill="#2563eb"/></g>
<g><title>7 workers: 1.699s</title><circle cx="340.4" cy="230.7" r="4" fill="#2563eb"/></g>
<g><title>8 workers: 1.713s</title><circle cx="385.4" cy="221.6" r="4" fill="#2563eb"/></g>
<g><title>9 workers: 1.703s</title><circle cx="430.5" cy="228.2" r="4" fill="#2563eb"/></g>
<g><title>10 workers: 1.713s</title><circle cx="475.5" cy="221.2" r="4" fill="#2563eb"/></g>
<g><title>11 workers: 1.971s</title><circle cx="520.6" cy="51.0" r="4" fill="#2563eb"/></g>
<g><title>12 workers: 1.733s</title><circle cx="565.6" cy="208.4" r="4" fill="#2563eb"/></g>
<g><title>13 workers: 1.766s</title><circle cx="610.7" cy="186.2" r="4" fill="#2563eb"/></g>
<g><title>14 workers: 1.775s</title><circle cx="655.8" cy="180.2" r="4" fill="#2563eb"/></g>
<g><title>15 workers: 1.797s</title><circle cx="700.8" cy="166.1" r="4" fill="#2563eb"/></g>
<g><title>16 workers: 1.802s</title><circle cx="745.9" cy="163.0" r="4" fill="#2563eb"/></g>
<g><title>17 workers: 1.894s</title><circle cx="790.9" cy="102.1" r="4" fill="#2563eb"/></g>
<g><title>18 workers: 1.827s</title><circle cx="836.0" cy="146.0" r="4" fill="#2563eb"/></g>
  <text x="430" y="406" text-anchor="middle" font-size="13" fill="#374151">SSG_WORKERS</text>
  <text x="18" y="210" transform="rotate(-90 18 210)" text-anchor="middle" font-size="13" fill="#374151">平均耗时（秒）</text>
  <text x="836" y="48" text-anchor="end" font-size="12" fill="#111827">最优均值：1 worker，1.567s</text>
</svg>
